Coordinates
version=1
nRows=17
nColumns=24
inDegrees=yes

Units are S.I. units (second, meters, Newtons, ...)
Angles are in degrees.

endheader
time	pelvis_tilt	pelvis_list	pelvis_rotation	pelvis_tx	pelvis_ty	pelvis_tz	hip_flexion_r	hip_adduction_r	hip_rotation_r	knee_angle_r	ankle_angle_r	subtalar_angle_r	mtp_angle_r	hip_flexion_l	hip_adduction_l	hip_rotation_l	knee_angle_l	ankle_angle_l	subtalar_angle_l	mtp_angle_l	lumbar_extension	lumbar_bending	lumbar_rotation
      5.84000000	      2.26321273	      3.70158232	     -4.37796890	     -0.55598794	      0.67661244	      0.23283399	     18.51879352	     -2.88984057	     -1.14579315	    -73.98150644	     -6.51593249	    -15.13393889	      0.00000000	      8.03122199	      6.88954509	     -7.79589631	    -16.25062709	     12.39075174	    -10.54937751	      0.00000000	    -21.79087893	     -9.25457727	     -3.27025586
      5.85000000	      2.38487612	      3.76906877	     -3.59897343	     -0.54690441	      0.67692225	      0.23176811	     20.38209605	     -2.85595368	     -1.18273997	    -74.24538056	     -4.95706809	    -15.90775494	      0.00000000	      6.94065040	      7.22483192	     -6.82652951	    -16.08651682	     13.10905852	    -10.51214138	      0.00000000	    -22.05534255	     -9.00863702	     -4.00889510
      5.86000000	      2.50233120	      3.80579147	     -2.83894249	     -0.53780191	      0.67716654	      0.23073818	     22.12201443	     -2.81416120	     -1.17391712	    -74.03567316	     -3.40498791	    -16.56191589	      0.00000000	      5.79477709	      7.51501336	     -5.75633625	    -15.82500999	     13.61414603	    -10.70247117	      0.00000000	    -22.28296926	     -8.74386115	     -4.73579393
      5.87000000	      2.62890413	      3.82481894	     -2.10770256	     -0.52864232	      0.67734758	      0.22981421	     23.69842231	     -2.77135314	     -1.12367023	    -73.31278745	     -2.26373162	    -17.44890993	      0.00000000	      4.59538221	      7.72771088	     -4.85701320	    -15.50720301	     14.34988903	    -10.64371895	      0.00000000	    -22.48119354	     -8.50856948	     -5.44088262
      5.88000000	      2.75555228	      3.81186282	     -1.35108867	     -0.51950194	      0.67746171	      0.22893995	     25.11127032	     -2.72309880	     -1.05835261	    -72.10444697	     -1.17740463	    -18.14038282	      0.00000000	      3.37981376	      7.86497007	     -3.91958782	    -15.17619060	     14.99665429	    -10.54765095	      0.00000000	    -22.69527680	     -8.25286506	     -6.21313116
      5.89000000	      2.87690107	      3.80337105	     -0.60447818	     -0.51032509	      0.67748528	      0.22814328	     26.35909021	     -2.71850756	     -0.97857909	    -70.42190988	     -0.15038878	    -18.65356943	      0.00000000	      2.14882316	      7.95332474	     -3.06394447	    -14.81351616	     15.63874123	    -10.39252650	      0.00000000	    -22.90840139	     -8.02897782	     -6.97640741
      5.90000000	      2.99309212	      3.80503109	      0.15621548	     -0.50111473	      0.67741896	      0.22742968	     27.41933562	     -2.75529131	     -0.88581784	    -68.26237593	      0.81355483	    -18.99541189	      0.00000000	      0.92014511	      7.99657553	     -2.25306894	    -14.45945958	     16.27736903	    -10.13219823	      0.00000000	    -23.13114234	     -7.84338069	     -7.77719499
      5.91000000	      3.07051611	      3.83337420	      0.94721620	     -0.49184251	      0.67721278	      0.22677301	     28.31625307	     -2.87466957	     -0.82442767	    -65.64258395	      1.65009117	    -19.27121828	      0.00000000	     -0.26804193	      8.01093610	     -1.51091942	    -14.11483141	     16.93299225	     -9.77336173	      0.00000000	    -23.33272278	     -7.70640669	     -8.58606026
      5.92000000	      3.07668250	      3.90336644	      1.78665168	     -0.48246881	      0.67682550	      0.22612488	     29.06709437	     -3.11941512	     -0.84450936	    -62.56858740	      2.29765164	    -19.60631357	      0.00000000	     -1.38547559	      8.02298060	     -0.80075909	    -13.78068261	     17.59053366	     -9.36162164	      0.00000000	    -23.46453042	     -7.61584236	     -9.37913592
      5.93000000	      3.09088109	      3.96023127	      2.66636480	     -0.47299449	      0.67635063	      0.22548331	     29.55064425	     -3.40054767	     -0.91874358	    -59.00804944	      2.56001002	    -20.02436559	      0.00000000	     -2.50268678	      7.97753828	     -0.08398491	    -13.49177869	     18.25526602	     -8.84054935	      0.00000000	    -23.63443420	     -7.48510239	    -10.28099127
      5.94000000	      3.10839814	      3.99802113	      3.57408031	     -0.46331948	      0.67577841	      0.22483208	     29.74356035	     -3.73450659	     -1.12885534	    -54.93128527	      2.21665968	    -21.01031133	      0.00000000	     -3.64887545	      7.86589336	      0.54898317	    -13.17720286	     18.91229544	     -8.20734110	      0.00000000	    -23.79185165	     -7.32574396	    -11.03778345
      5.95000000	      2.96081657	      4.11067218	      4.55074175	     -0.45347268	      0.67491453	      0.22409440	     29.85417550	     -4.23871587	     -1.45584975	    -50.44339478	      1.47427691	    -22.11798622	      0.00000000	     -4.63363837	      7.82314293	      1.28889366	    -12.88086780	     19.54990837	     -7.70528310	      0.00000000	    -23.75941245	     -7.22518236	    -11.87831090
      5.96000000	      2.75744216	      4.27020043	      5.57562243	     -0.44339797	      0.67387263	      0.22328329	     29.74738883	     -4.86812804	     -1.93176480	    -45.55158583	      0.44649912	    -23.26009136	      0.00000000	     -5.60086852	      7.81079654	      2.10620196	    -12.55793117	     20.12940562	     -7.29324598	      0.00000000	    -23.64916826	     -7.15460683	    -12.70861134
      5.97000000	      2.50467323	      4.48591197	      6.63330471	     -0.43305733	      0.67264431	      0.22241114	     29.43422026	     -5.61171920	     -2.55691857	    -40.33293584	     -0.63805094	    -24.12838180	      0.00000000	     -6.56834839	      7.83655904	      2.98187209	    -12.20339755	     20.65445187	     -6.96232341	      0.00000000	    -23.45626488	     -7.13542801	    -13.52009856
      5.98000000	      2.17220260	      4.78071069	      7.71399954	     -0.42243901	      0.67119288	      0.22150995	     28.98828302	     -6.47839857	     -3.34263079	    -34.89743485	     -1.45721450	    -24.38596490	      0.00000000	     -7.50929892	      7.92244185	      3.88133304	    -11.81881187	     21.13006381	     -6.67762655	      0.00000000	    -23.14825932	     -7.21032108	    -14.32485758
      5.99000000	      1.72466982	      5.15047030	      8.80176390	     -0.41157550	      0.66948315	      0.22063348	     28.50018482	     -7.42763355	     -4.22679525	    -29.35639454	     -1.89563574	    -23.87618385	      0.00000000	     -8.35244141	      8.06575277	      4.72480475	    -11.47291506	     21.55509441	     -6.39260858	      0.00000000	    -22.69630811	     -7.40133367	    -15.13231621
      6.00000000	      1.40099514	      5.53379245	      9.82646568	     -0.40039321	      0.66775116	      0.21984479	     27.74681570	     -8.32705351	     -5.22522529	    -23.76816798	     -1.89600978	    -22.58754151	      0.00000000	     -9.42929915	      8.17309036	      5.61747312	    -11.00641126	     21.83699009	     -6.22814614	      0.00000000	    -22.35143463	     -7.62322825	    -15.75209632
